<?xml version="1.0" standalone="no"?><!DOCTYPE svg PUBLIC "-//W3C//DTD SVG 1.1//EN" "http://www.w3.org/Graphics/SVG/1.1/DTD/svg11.dtd"><svg t="1609216280709" class="icon" viewBox="0 0 1024 1024" version="1.1" xmlns="http://www.w3.org/2000/svg" p-id="54296" width="120" height="120" xmlns:xlink="http://www.w3.org/1999/xlink"><defs><style type="text/css"></style></defs><path d="M512 512m-445 0a445 445 0 1 0 890 0 445 445 0 1 0-890 0Z" fill="#E6F3FF" p-id="54297"></path><path d="M502.5 375.3c-2.8 0-5.4 0.5-8 1.1v-56.9H337.1c-9.7 0-17.5 7.8-17.5 17.5v157.4h56.8c-0.7-2.6-1.1-5.2-1.1-8 0-17.7 14.5-32 32.3-31.8 8 0.1 15.3 4.3 20.9 10 11.5 12 11.5 21.3 9.4 29.7h56.8v-56.7c2.6 0.7 5.2 1.1 8 1.1 17.6 0 31.8-14.2 31.8-31.8-0.2-17.3-14.5-31.6-32-31.6z" fill="#FFDC83" p-id="54298"></path><path d="M502.5 375.3c-2.8 0-5.4 0.5-8 1.1v-56.9H337.1c-9.7 0-17.5 7.8-17.5 17.5v157.4h56.8c-0.7-2.6-1.1-5.2-1.1-8 0-17.7 14.5-32 32.3-31.8 8 0.1 15.3 4.3 20.9 10 11.5 12 11.5 21.3 9.4 29.7h56.8v-56.7c2.6 0.7 5.2 1.1 8 1.1 17.6 0 31.8-14.2 31.8-31.8-0.2-17.3-14.5-31.6-32-31.6z" fill="#22D0FF" p-id="54299"></path><path d="M669.4 335.6c0-8.8-7.1-15.9-15.9-15.9h-159v56.8c2.6-0.7 5.2-1.1 8-1.1 17.6 0 31.8 14.2 31.8 31.8S520.1 439 502.5 439c-2.8 0-5.4-0.5-8-1.1v56.8h56.8c-0.7 2.6-1.1 5.2-1.1 8 0 17.6 14.2 31.8 31.8 31.8s31.8-14.2 31.8-31.8c0-2.8-0.5-5.4-1.1-8h56.8V335.6z" fill="#148AF4" p-id="54300"></path><path d="M486.6 550.2c2.8 0 5.4 0.5 8 1.1v-56.8h-56.8c0.7-2.6 1.1-5.2 1.1-8 0-17.6-14.2-31.8-31.8-31.8s-31.8 14.2-31.8 31.8c0 2.8 0.5 5.4 1.1 8h-56.8v159c0 8.8 7.1 15.9 15.9 15.9h159v-56.8c-2.6 0.7-5.2 1.1-8 1.1-17.6 0-31.8-14.2-31.8-31.8 0-17.5 14.3-31.7 31.9-31.7z" fill="#148AF4" p-id="54301"></path><path d="M647.6 529.5c0.7 2.6 1.1 5.2 1.1 8 0 17.6-14.2 31.8-31.8 31.8s-31.8-14.2-31.8-31.8c0-2.8 0.5-5.4 1.1-8h-56.8v56.8c-2.6-0.7-5.2-1.1-8-1.1-17.6 0-31.8 14.2-31.8 31.8s14.2 31.8 31.8 31.8c2.8 0 5.4-0.5 8-1.1v56.8h159c8.8 0 15.9-7.1 15.9-15.9v-159h-56.7z" fill="#B8DDFF" p-id="54302"></path><path d="M494.5 425.7z" fill="#FFC871" p-id="54303"></path></svg>