<?xml version="1.0" standalone="no"?><!DOCTYPE svg PUBLIC "-//W3C//DTD SVG 1.1//EN" "http://www.w3.org/Graphics/SVG/1.1/DTD/svg11.dtd"><svg t="1609219860562" class="icon" viewBox="0 0 1024 1024" version="1.1" xmlns="http://www.w3.org/2000/svg" p-id="34109" xmlns:xlink="http://www.w3.org/1999/xlink" width="120" height="120"><defs><style type="text/css"></style></defs><path d="M512 1024C230.4 1024 0 793.6 0 512S230.4 0 512 0s512 230.4 512 512-230.4 512-512 512z" fill="#2283F6" p-id="34110"></path><path d="M770.133333 432h-3.2V565.333333c0 76.8-59.733333 125.866667-125.866666 125.866667H518.4l-40.533333 27.733333v-2.133333l-19.2-4.266667v19.2c16 12.8 38.4 20.266667 59.733333 20.266667h66.133333l138.666667 76.8v-76.8h2.133333c54.4 0 96-40.533333 96-91.733333V513.066667c0-35.2-20.266667-65.066667-51.2-81.066667z" fill="#96EAD4" p-id="34111"></path><path d="M770.133333 412.8h-3.2v134.4c0 76.8-59.733333 125.866667-125.866666 125.866667H518.4L458.666667 712.533333c16 12.8 38.4 20.266667 59.733333 20.266667h66.133333l138.666667 76.8v-76.8h2.133333c54.4 0 96-40.533333 96-91.733333V493.866667c0-35.2-20.266667-65.066667-51.2-81.066667z" fill="#FFFFFF" p-id="34112"></path><path d="M648.533333 219.733333H292.266667c-51.2 0-92.8 42.666667-92.8 92.8v241.066667c0 51.2 42.666667 92.8 92.8 92.8h35.2l-5.333334 37.333333-3.2 2.133334v19.2l105.6-57.6 98.133334 1.066666h126.933333c52.266667 0 92.8-42.666667 92.8-92.8V313.6c-1.066667-51.2-42.666667-93.866667-93.866667-93.866667z" fill="#96EAD4" p-id="34113"></path><path d="M423.466667 628.266667l98.133333 1.066666h126.933333c52.266667 0 92.8-42.666667 92.8-92.8V293.333333c0-51.2-42.666667-92.8-92.8-92.8H292.266667c-51.2 0-92.8 42.666667-92.8 92.8v241.066667c0 51.2 42.666667 92.8 92.8 92.8h35.2l-8.533334 58.666667 104.533334-57.6z" fill="#FFFFFF" p-id="34114"></path><path d="M407.466667 392.533333c-14.933333 0-27.733333-12.8-27.733334-27.733333 0-14.933333 12.8-27.733333 27.733334-27.733333 14.933333 0 27.733333 12.8 27.733333 27.733333 0 14.933333-12.8 27.733333-27.733333 27.733333z m129.066666 0c-14.933333 0-27.733333-12.8-27.733333-27.733333 0-14.933333 12.8-27.733333 27.733333-27.733333 14.933333 0 27.733333 12.8 27.733334 27.733333 0 14.933333-12.8 27.733333-27.733334 27.733333z m-119.466666 73.6c0-10.666667 7.466667-18.133333 18.133333-18.133333s18.133333 7.466667 18.133333 18.133333 7.466667 18.133333 18.133334 18.133334 18.133333-7.466667 18.133333-18.133334 7.466667-18.133333 18.133333-18.133333 18.133333 7.466667 18.133334 18.133333c0 30.933333-23.466667 55.466667-55.466667 55.466667-29.866667 0-53.333333-24.533333-53.333333-55.466667z" fill="#2283F6" p-id="34115"></path></svg>