<?xml version="1.0" standalone="no"?><!DOCTYPE svg PUBLIC "-//W3C//DTD SVG 1.1//EN" "http://www.w3.org/Graphics/SVG/1.1/DTD/svg11.dtd"><svg t="1609213249912" class="icon" viewBox="0 0 1024 1024" version="1.1" xmlns="http://www.w3.org/2000/svg" p-id="29913" xmlns:xlink="http://www.w3.org/1999/xlink" width="120" height="120"><defs><style type="text/css"></style></defs><path d="M513 510m-445 0a445 445 0 1 0 890 0 445 445 0 1 0-890 0Z" fill="#A6DAE8" p-id="29914"></path><path d="M513 955c233.4 0 424.9-179.8 443.5-408.4-7.2-7.4-49.2-50.8-293.6-303.6l-274 61-63.2 183.1v305.1l168.2 162.3c6.3 0.4 12.7 0.5 19.1 0.5z" fill="#93C6D7" p-id="29915"></path><path d="M426.5 361.3c21.6 0 64.9 21.1 64.9 42.2s-43.2 42.2-64.9 42.2c-21.6 0-43.2-21.1-43.2-42.2s21.6-42.2 43.2-42.2z m173 0c21.6 0 43.2 21.1 43.2 42.2s-21.6 42.2-43.2 42.2c-43.2 0-64.9-21.1-64.9-42.2s21.6-42.2 64.9-42.2zM275.2 466.7C231.9 782.9 340 888.3 404.9 782.9c21.6-21.1 43.2 21.1 43.2 42.2 43.2 42.2 86.5 42.2 108.1 0 21.6-21.1 43.2-63.2 43.2-42.2 86.5 105.4 194.6 0 151.3-316.2-21.5-379.4-453.9-379.4-475.5 0z" fill="#184F78" p-id="29916"></path></svg>